<svg xmlns="http://www.w3.org/2000/svg" xmlns:xlink="http://www.w3.org/1999/xlink" aria-hidden="true" role="img" class="iconify iconify--logos" width="32" height="32" preserveAspectRatio="xMidYMid meet" viewBox="0 0 32 32"><defs><clipPath id="clip-rect"><rect x="0" y="0" width="32" height="32" rx="8" ry="8" fill="yellow"></rect></clipPath></defs><rect x="0" y="0" width="32" height="32" rx="8" ry="8" fill="yellow"></rect><g clip-path="url(#clip-rect)"><circle cx="0" cy="32" r="8" fill="black"></circle><circle cx="5.061557739120178" cy="25.819042305321446" r="3.035866516650234" fill="black"></circle><circle cx="9.051273329130316" cy="30.97098971166734" r="2.2954146946102743" fill="black"></circle><circle cx="3.9235779545377696" cy="24.338841280494368" r="2.8775092445776496" fill="black"></circle><circle cx="0.7132429513212093" cy="23.334875225274793" r="2.5253235616749707" fill="black"></circle><circle cx="0.6180305523201893" cy="24.057772122418566" r="2.5091563063540496" fill="black"></circle><circle cx="8.285692946097713" cy="28.49851835275941" r="3.204099167974414" fill="black"></circle><circle cx="0.009739816618003659" cy="23.59648942680151" r="2.2710828223430255" fill="black"></circle><circle cx="8.573333408643826" cy="22.82984472520392" r="1.2834995094354194" fill="black"></circle><circle cx="1.0181650273086842" cy="20.761110180128515" r="1.629175374290216" fill="black"></circle><circle cx="10.64248953881111" cy="25.95827542912805" r="1.4488710874829835" fill="black"></circle><circle cx="13.308244709579157" cy="28.842827743160104" r="1.976468591483272" fill="black"></circle><circle cx="11.288404737534394" cy="20.040286747584027" r="1.028204441369102" fill="black"></circle><circle cx="14.549175394480187" cy="29.272141543921467" r="1.024043004285241" fill="black"></circle><circle cx="15.156311998696342" cy="24.249881619094253" r="0.9576692850908951" fill="black"></circle><circle cx="15.663809120027834" cy="28.37135435047813" r="0.9731054611457526" fill="black"></circle><circle cx="6.702571619465959" cy="18.195536055595518" r="0.9608481932455746" fill="black"></circle><circle cx="1.9697929315292995" cy="16.356131249299313" r="0.993038170922637" fill="black"></circle><circle cx="14.709947382829839" cy="29.936933376655862" r="1.2036419079503502" fill="black"></circle><circle cx="16.59057576412873" cy="30.24970468488923" r="1.060452876133974" fill="black"></circle><circle cx="7.799848110785957" cy="16.58079171174554" r="0.9620979533220444" fill="black"></circle><circle cx="13.404230816930024" cy="23.39518074438531" r="1.1533628361952617" fill="black"></circle><circle cx="7.5660314916776" cy="18.595439806021403" r="1.169595447033461" fill="black"></circle><circle cx="10.709854150766615" cy="21.584321017626188" r="1.0795544312540049" fill="black"></circle><circle cx="11.695889032911838" cy="19.094113796720983" r="1.1770401650507103" fill="black"></circle><circle cx="14.408244353580448" cy="26.109836149609656" r="1.2528684225189353" fill="black"></circle><circle cx="7.340324575952735" cy="17.46746548497608" r="1.0931110746407455" fill="black"></circle><circle cx="12.960511909360692" cy="23.339003657578296" r="0.921891910578752" fill="black"></circle><circle cx="15.422909866179596" cy="30.953895902055265" r="1.1704167068698488" fill="black"></circle><circle cx="2.2135777611044873" cy="15.921244098726753" r="1.0363334611954107" fill="black"></circle><circle cx="6.714846563361027" cy="16.01888098332862" r="1.2513262181087186" fill="black"></circle><circle cx="15.745420590283635" cy="30.232963294547737" r="1.1640965069913023" fill="black"></circle><circle cx="16.051989077541943" cy="25.5154267688421" r="1.172339750541251" fill="black"></circle><circle cx="1.7142187144299197" cy="11.329008859834357" r="0.6793058468959784" fill="black"></circle><circle cx="1.2527860054543072" cy="14.14659772480318" r="0.7187075121684271" fill="black"></circle><circle cx="10.650293753188683" cy="15.07910882076644" r="0.6625193879604241" fill="black"></circle><circle cx="19.113299173273486" cy="23.308162587301954" r="0.6640816419554013" fill="black"></circle><circle cx="8.154975535039647" cy="15.281817280302953" r="0.8292431724393191" fill="black"></circle><circle cx="9.000517519395707" cy="13.966405001542316" r="0.8769259886405888" fill="black"></circle><circle cx="16.277183788213698" cy="22.399175588196353" r="0.67627682579375" fill="black"></circle><circle cx="1.160257011467578" cy="12.019684804333842" r="0.6948086507990331" fill="black"></circle><circle cx="6.2162279923467985" cy="13.034409955487373" r="0.668862974656446" fill="black"></circle><circle cx="18.62375842352766" cy="21.630462875240575" r="0.6882101294576499" fill="black"></circle><circle cx="15.251166349444006" cy="20.550153065533934" r="0.8140253942678515" fill="black"></circle><circle cx="13.65272636130508" cy="17.470344302990746" r="0.8597968483700744" fill="black"></circle><circle cx="9.85486678885479" cy="15.624121849532827" r="0.8378593892960615" fill="black"></circle><circle cx="5.356362899618666" cy="14.881359369162748" r="0.653844261163625" fill="black"></circle><circle cx="7.431252444077014" cy="13.249007765798453" r="0.702656472629515" fill="black"></circle><circle cx="19.095056351828646" cy="25.065001765341812" r="0.6620559870645436" fill="black"></circle><circle cx="22.420510034724902" cy="26.321117006493004" r="0.5040556805102416" fill="black"></circle><circle cx="22.535400241368976" cy="26.97835429071613" r="0.5931120731211971" fill="black"></circle><circle cx="7.898853278236608" cy="11.132811656690485" r="0.5314667657388387" fill="black"></circle><circle cx="13.959634148723078" cy="14.924848790890309" r="0.5513140029413585" fill="black"></circle><circle cx="13.946687554353668" cy="11.813856841074411" r="0.5374312670451946" fill="black"></circle><circle cx="23.98163586157285" cy="28.888050140512544" r="0.5825440281943368" fill="black"></circle><circle cx="8.786483693598521" cy="9.18466132522726" r="0.6372394811519911" fill="black"></circle><circle cx="11.245859756310045" cy="11.703135183903647" r="0.5402334343547651" fill="black"></circle><circle cx="20.01630586417345" cy="24.494603449337284" r="0.5703603889216831" fill="black"></circle><circle cx="9.172527397585773" cy="12.260782510547756" r="0.6129003757650966" fill="black"></circle><circle cx="21.149238903113513" cy="27.25491535405552" r="0.6519899658488089" fill="black"></circle><circle cx="14.768227067117476" cy="14.155016507617265" r="0.5706278984881329" fill="black"></circle><circle cx="22.50871304260345" cy="25.996409399104152" r="0.5792570783716162" fill="black"></circle><circle cx="7.974681229773084" cy="8.696881245575767" r="0.6139690949696426" fill="black"></circle><circle cx="23.55703379801622" cy="25.26763168374076" r="0.505994827758412" fill="black"></circle><circle cx="3.9162586184486656" cy="9.96858971608934" r="0.5257963443094129" fill="black"></circle><circle cx="23.91099636916219" cy="29.398127642517302" r="0.5183088414698103" fill="black"></circle><circle cx="7.415155830848435" cy="8.293653114656475" r="0.5125740437775387" fill="black"></circle><circle cx="12.19611640642467" cy="10.453992165132476" r="0.6148499693919035" fill="black"></circle><circle cx="26.49834539039981" cy="23.450534673808068" r="0.41772743647952487" fill="black"></circle><circle cx="23.861193643894747" cy="21.755385784807288" r="0.4196315463833581" fill="black"></circle><circle cx="19.489750160733646" cy="12.213019569912323" r="0.41711384638129045" fill="black"></circle><circle cx="26.200920047935966" cy="21.89928659682071" r="0.43340064889282914" fill="black"></circle><circle cx="21.66015744900114" cy="14.97207540916218" r="0.43206877339136407" fill="black"></circle><circle cx="21.31716758489407" cy="19.019108622796807" r="0.42822487285854993" fill="black"></circle><circle cx="3.953780542869569" cy="4.993369028063839" r="0.4967907766935627" fill="black"></circle><circle cx="26.709597087437956" cy="30.996945129754423" r="0.4511861678394618" fill="black"></circle><circle cx="25.534820554784673" cy="26.822815566267533" r="0.47832605492712776" fill="black"></circle><circle cx="25.405300419268062" cy="25.705186649032978" r="0.4709700098073343" fill="black"></circle><circle cx="18.055661786619076" cy="11.338655803627187" r="0.4669622322590527" fill="black"></circle><circle cx="27.776324059482743" cy="27.027596516332352" r="0.4942998528670962" fill="black"></circle><circle cx="27.092208577301243" cy="31.03437241563434" r="0.432320485095902" fill="black"></circle><circle cx="13.152551731361905" cy="8.400380641393415" r="0.4342293849518887" fill="black"></circle><circle cx="24.18679961243696" cy="17.576841501334556" r="0.3953552035014627" fill="black"></circle><circle cx="26.816642409350003" cy="31.930808505109955" r="0.4517364904104916" fill="black"></circle><circle cx="22.145071748252946" cy="19.140038727974943" r="0.42209903252606745" fill="black"></circle><circle cx="16.79062498467565" cy="13.61207208298239" r="0.4022548348349148" fill="black"></circle><circle cx="2.443957296270909" cy="5.570345676411936" r="0.4159438241211838" fill="black"></circle><circle cx="26.824910293561754" cy="31.773168937429993" r="0.46355797061397686" fill="black"></circle><circle cx="24.444197625821207" cy="24.670505252697147" r="0.4701242881349571" fill="black"></circle><circle cx="13.937808002440567" cy="10.118966855318082" r="0.4115324522721342" fill="black"></circle><circle cx="28.817479242804787" cy="29.249535253915166" r="0.33366669883331895" fill="black"></circle><circle cx="28.491034763011676" cy="21.167424800078248" r="0.32138994854508973" fill="black"></circle><circle cx="0.6616994895012349" cy="3.2534853258348697" r="0.37319520907581677" fill="black"></circle><circle cx="14.662599056947917" cy="7.2358255004196295" r="0.34373941354796084" fill="black"></circle><circle cx="14.396301288322732" cy="6.1156717382313595" r="0.36732795164033016" fill="black"></circle><circle cx="4.629603179445639" cy="2.05527312914235" r="0.3315575460840612" fill="black"></circle><circle cx="21.55750112433048" cy="10.472995507897842" r="0.3211673628163175" fill="black"></circle><circle cx="25.863246137924506" cy="19.67587154772741" r="0.3684592172997498" fill="black"></circle><circle cx="23.013317494348687" cy="10.410880317004047" r="0.33741919772791534" fill="black"></circle><circle cx="7.877508088797478" cy="3.482549787034724" r="0.3931618132975455" fill="black"></circle><circle cx="30.445352293613805" cy="24.59800599621638" r="0.3589936415411494" fill="black"></circle><circle cx="11.638316991223327" cy="5.110793669724206" r="0.3493977498764421" fill="black"></circle><circle cx="27.984260724544587" cy="17.23469034702476" r="0.3331204553760164" fill="black"></circle><circle cx="28.168586801549974" cy="27.04430090293436" r="0.3583012767330589" fill="black"></circle><circle cx="9.016749715402078" cy="4.731105151016465" r="0.3859944575572151" fill="black"></circle><circle cx="3.2279065575998285" cy="1.7470915784815304" r="0.392322862810397" fill="black"></circle><circle cx="26.15788398089173" cy="16.749472370034702" r="0.3840398024757744" fill="black"></circle><circle cx="7.0563488630461935" cy="3.893426827770977" r="0.3849861714924151" fill="black"></circle><circle cx="17.424547933794976" cy="6.593786885405773" r="0.39174436703049514" fill="black"></circle><circle cx="21.855756626195088" cy="12.035796537928388" r="0.35025279061907344" fill="black"></circle><circle cx="28.482835868664072" cy="23.963041333941057" r="0.3739720938925031" fill="black"></circle><circle cx="28.567798749953223" cy="28.075817648159887" r="0.38746666575207017" fill="black"></circle></g></svg>